<?xml version="1.0" encoding="utf-8"?>
<!-- Generator: Adobe Illustrator 25.2.0, SVG Export Plug-In . SVG Version: 6.00 Build 0)  -->
<svg version="1.1" id="Layer_1" xmlns="http://www.w3.org/2000/svg" xmlns:xlink="http://www.w3.org/1999/xlink" x="0px" y="0px"
	 viewBox="0 0 256 256" style="enable-background:new 0 0 256 256;" xml:space="preserve">
<style type="text/css">
	.st0{fill:#00BFA6;}
</style>
<g>
	<path class="st0" d="M197.4,162.63l-29.42-34.34c-3.48-4.06-3.01-10.18,1.05-13.66c4.06-3.48,10.18-3.01,13.66,1.05l23.11,26.98
		l26.98-23.11c4.06-3.48,10.18-3.01,13.66,1.05c3.48,4.06,3.01,10.18-1.05,13.66l-34.34,29.42
		C207,167.17,200.88,166.69,197.4,162.63z"/>
</g>
<g>
	<path class="st0" d="M7.63,137.29c-3.43-4.1-2.88-10.22,1.22-13.65l34.69-28.99c4.1-3.43,10.22-2.88,13.65,1.22l28.99,34.69
		c3.43,4.1,2.88,10.22-1.22,13.65s-10.22,2.88-13.65-1.22l-22.78-27.26l-27.26,22.78C17.18,141.94,11.06,141.39,7.63,137.29z"/>
</g>
<g>
	<path class="st0" d="M62.24,84.31c-0.67-0.34-1.29-0.75-1.87-1.25c-4.08-3.46-4.57-9.58-1.12-13.66
		c27.28-32.07,72.53-41.07,110.04-21.87c35.59,18.22,55.11,58.3,47.49,97.48c-1.03,5.25-6.11,8.68-11.37,7.66
		c-5.28-1.05-8.68-6.11-7.66-11.37c6.01-30.75-9.34-62.22-37.29-76.53C131,49.7,95.45,56.75,74.03,81.96
		C71.06,85.44,66.15,86.31,62.24,84.31L62.24,84.31z"/>
</g>
<g>
	<path class="st0" d="M86.88,208.52c-35.59-18.22-55.11-58.3-47.49-97.48c1.03-5.25,6.11-8.68,11.37-7.66
		c5.28,0.99,8.67,6.11,7.65,11.36c-5.99,30.76,9.35,62.23,37.3,76.54c29.46,15.08,65.01,8.03,86.43-17.17
		c3.49-4.07,9.66-4.49,13.66-1.11c4.08,3.46,4.57,9.58,1.12,13.66C169.63,218.73,124.39,227.73,86.88,208.52L86.88,208.52z"/>
</g>
<path class="st0" d="M127.52,121.21c-9.02,0.11-16.45-7.14-16.55-16.16c-0.11-9.02,7.14-16.45,16.16-16.55
	c9.02-0.11,16.45,7.14,16.55,16.16c0.04,3.61,3.01,6.51,6.62,6.47s6.51-3.01,6.47-6.62c-0.17-13.99-10.11-25.6-23.25-28.43
	l-0.09-7.29c-0.04-3.61-3.01-6.51-6.62-6.47c-3.61,0.04-6.51,3.01-6.47,6.62l0.09,7.29c-13.06,3.14-22.73,14.99-22.56,28.98
	c0.19,16.24,13.56,29.29,29.8,29.1c9.02-0.11,16.45,7.14,16.55,16.16c0.11,9.02-7.14,16.45-16.16,16.55s-16.45-7.14-16.55-16.16
	c-0.04-3.61-3.01-6.51-6.62-6.47s-6.51,3.01-6.47,6.62c0.17,13.99,10.11,25.6,23.25,28.43l0.09,7.29c0.04,3.61,3.01,6.51,6.62,6.47
	s6.51-3.01,6.47-6.62l-0.09-7.29c13.06-3.14,22.73-14.99,22.56-28.98C157.13,134.07,143.76,121.02,127.52,121.21z"/>
</svg>
